# Blender 4.3.2
# www.blender.org
mtllib BothPlane.mtl
o Plane
v -1.000000 -0.000250 -1.000250
v 1.000000 -0.000250 -1.000250
v -1.000000 -0.000750 0.999750
v 1.000000 -0.000750 0.999750
v -1.000000 0.000750 -1.000250
v 1.000000 0.000750 -1.000250
v -1.000000 0.000250 0.999750
v 1.000000 0.000250 0.999750
vn -0.0000 -1.0000 -0.0002
vn -0.0000 1.0000 0.0002
vt 1.000000 0.000000
vt 0.000000 1.000000
vt 0.000000 0.000000
vt 1.000000 1.000000
s 0
usemtl Texturematerial
f 2/1/1 3/2/1 1/3/1
f 7/2/2 6/1/2 5/3/2
f 2/1/1 4/4/1 3/2/1
f 7/2/2 8/4/2 6/1/2
