{
	"asset":{
		"generator":"Khronos glTF Blender I/O v4.3.47",
		"version":"2.0"
	},
	"scene":0,
	"scenes":[
		{
			"name":"Scene",
			"nodes":[
				2
			]
		}
	],
	"nodes":[
		{
			"name":"Grip"
		},
		{
			"mesh":0,
			"name":"Club",
			"skin":0
		},
		{
			"children":[
				1,
				0
			],
			"name":"Club_Armature"
		}
	],
	"materials":[
		{
			"doubleSided":true,
			"name":"Weapon",
			"pbrMetallicRoughness":{
				"baseColorTexture":{
					"index":0
				},
				"metallicFactor":0,
				"roughnessFactor":0.5
			}
		}
	],
	"meshes":[
		{
			"name":"\u5186\u67f1.004",
			"primitives":[
				{
					"attributes":{
						"POSITION":0,
						"NORMAL":1,
						"TEXCOORD_0":2,
						"JOINTS_0":3,
						"WEIGHTS_0":4
					},
					"indices":5,
					"material":0
				}
			]
		}
	],
	"textures":[
		{
			"sampler":0,
			"source":0
		}
	],
	"images":[
		{
			"mimeType":"image/png",
			"name":"Tex",
			"uri":"Tex.png"
		}
	],
	"skins":[
		{
			"inverseBindMatrices":6,
			"joints":[
				0
			],
			"name":"Club_Armature"
		}
	],
	"accessors":[
		{
			"bufferView":0,
			"componentType":5126,
			"count":3012,
			"max":[
				0.1155969426035881,
				1.4116328954696655,
				0.13347306847572327
			],
			"min":[
				-0.11559705436229706,
				-0.19999998807907104,
				-0.13347306847572327
			],
			"type":"VEC3"
		},
		{
			"bufferView":1,
			"componentType":5126,
			"count":3012,
			"type":"VEC3"
		},
		{
			"bufferView":2,
			"componentType":5126,
			"count":3012,
			"type":"VEC2"
		},
		{
			"bufferView":3,
			"componentType":5121,
			"count":3012,
			"type":"VEC4"
		},
		{
			"bufferView":4,
			"componentType":5126,
			"count":3012,
			"type":"VEC4"
		},
		{
			"bufferView":5,
			"componentType":5123,
			"count":5070,
			"type":"SCALAR"
		},
		{
			"bufferView":6,
			"componentType":5126,
			"count":1,
			"type":"MAT4"
		}
	],
	"bufferViews":[
		{
			"buffer":0,
			"byteLength":36144,
			"byteOffset":0,
			"target":34962
		},
		{
			"buffer":0,
			"byteLength":36144,
			"byteOffset":36144,
			"target":34962
		},
		{
			"buffer":0,
			"byteLength":24096,
			"byteOffset":72288,
			"target":34962
		},
		{
			"buffer":0,
			"byteLength":12048,
			"byteOffset":96384,
			"target":34962
		},
		{
			"buffer":0,
			"byteLength":48192,
			"byteOffset":108432,
			"target":34962
		},
		{
			"buffer":0,
			"byteLength":10140,
			"byteOffset":156624,
			"target":34963
		},
		{
			"buffer":0,
			"byteLength":64,
			"byteOffset":166764
		}
	],
	"samplers":[
		{
			"magFilter":9729,
			"minFilter":9987
		}
	],
	"buffers":[
		{
			"byteLength":166828,
			"uri":"Club.bin"
		}
	]
}
