{
	"asset":{
		"generator":"Khronos glTF Blender I/O v4.3.47",
		"version":"2.0"
	},
	"scene":0,
	"scenes":[
		{
			"name":"Scene",
			"nodes":[
				2
			]
		}
	],
	"nodes":[
		{
			"name":"Grip"
		},
		{
			"mesh":0,
			"name":"Katana",
			"skin":0
		},
		{
			"children":[
				1,
				0
			],
			"name":"Katana_Armature"
		}
	],
	"materials":[
		{
			"doubleSided":true,
			"name":"KatanaMaterial",
			"pbrMetallicRoughness":{
				"baseColorTexture":{
					"index":0
				},
				"metallicFactor":0,
				"roughnessFactor":0.5
			}
		}
	],
	"meshes":[
		{
			"name":"Cube.002",
			"primitives":[
				{
					"attributes":{
						"POSITION":0,
						"NORMAL":1,
						"TEXCOORD_0":2,
						"JOINTS_0":3,
						"WEIGHTS_0":4
					},
					"indices":5,
					"material":0
				}
			]
		}
	],
	"textures":[
		{
			"sampler":0,
			"source":0
		}
	],
	"images":[
		{
			"mimeType":"image/png",
			"name":"KatanaTex",
			"uri":"KatanaTex.png"
		}
	],
	"skins":[
		{
			"inverseBindMatrices":6,
			"joints":[
				0
			],
			"name":"Katana_Armature"
		}
	],
	"accessors":[
		{
			"bufferView":0,
			"componentType":5126,
			"count":3388,
			"max":[
				0.13758715987205505,
				1.1444953680038452,
				0.05182092636823654
			],
			"min":[
				-0.05712380260229111,
				-0.19381672143936157,
				-0.051791712641716
			],
			"type":"VEC3"
		},
		{
			"bufferView":1,
			"componentType":5126,
			"count":3388,
			"type":"VEC3"
		},
		{
			"bufferView":2,
			"componentType":5126,
			"count":3388,
			"type":"VEC2"
		},
		{
			"bufferView":3,
			"componentType":5121,
			"count":3388,
			"type":"VEC4"
		},
		{
			"bufferView":4,
			"componentType":5126,
			"count":3388,
			"type":"VEC4"
		},
		{
			"bufferView":5,
			"componentType":5123,
			"count":6198,
			"type":"SCALAR"
		},
		{
			"bufferView":6,
			"componentType":5126,
			"count":1,
			"type":"MAT4"
		}
	],
	"bufferViews":[
		{
			"buffer":0,
			"byteLength":40656,
			"byteOffset":0,
			"target":34962
		},
		{
			"buffer":0,
			"byteLength":40656,
			"byteOffset":40656,
			"target":34962
		},
		{
			"buffer":0,
			"byteLength":27104,
			"byteOffset":81312,
			"target":34962
		},
		{
			"buffer":0,
			"byteLength":13552,
			"byteOffset":108416,
			"target":34962
		},
		{
			"buffer":0,
			"byteLength":54208,
			"byteOffset":121968,
			"target":34962
		},
		{
			"buffer":0,
			"byteLength":12396,
			"byteOffset":176176,
			"target":34963
		},
		{
			"buffer":0,
			"byteLength":64,
			"byteOffset":188572
		}
	],
	"samplers":[
		{
			"magFilter":9729,
			"minFilter":9987
		}
	],
	"buffers":[
		{
			"byteLength":188636,
			"uri":"Weapon.bin"
		}
	]
}
