{
	"asset":{
		"generator":"Khronos glTF Blender I/O v3.5.30",
		"version":"2.0"
	},
	"scene":0,
	"scenes":[
		{
			"name":"Scene",
			"nodes":[
				0
			]
		}
	],
	"nodes":[
		{
			"mesh":0,
			"name":"chain"
		}
	],
	"materials":[
		{
			"doubleSided":true,
			"name":"Material",
			"pbrMetallicRoughness":{
				"baseColorFactor":[
					0.09462588280439377,
					0.0016910956474021077,
					0.003326574107632041,
					1
				],
				"metallicFactor":0,
				"roughnessFactor":0.5
			}
		}
	],
	"meshes":[
		{
			"name":"\u30c8\u30fc\u30e9\u30b9",
			"primitives":[
				{
					"attributes":{
						"POSITION":0,
						"TEXCOORD_0":1,
						"NORMAL":2
					},
					"indices":3,
					"material":0
				}
			]
		}
	],
	"accessors":[
		{
			"bufferView":0,
			"componentType":5126,
			"count":876,
			"max":[
				0.08296003937721252,
				0.05101349577307701,
				0.010202702134847641
			],
			"min":[
				-0.08296003937721252,
				-0.05101349577307701,
				-0.010202702134847641
			],
			"type":"VEC3"
		},
		{
			"bufferView":1,
			"componentType":5126,
			"count":876,
			"type":"VEC2"
		},
		{
			"bufferView":2,
			"componentType":5126,
			"count":876,
			"type":"VEC3"
		},
		{
			"bufferView":3,
			"componentType":5123,
			"count":3456,
			"type":"SCALAR"
		}
	],
	"bufferViews":[
		{
			"buffer":0,
			"byteLength":10512,
			"byteOffset":0,
			"target":34962
		},
		{
			"buffer":0,
			"byteLength":7008,
			"byteOffset":10512,
			"target":34962
		},
		{
			"buffer":0,
			"byteLength":10512,
			"byteOffset":17520,
			"target":34962
		},
		{
			"buffer":0,
			"byteLength":6912,
			"byteOffset":28032,
			"target":34963
		}
	],
	"buffers":[
		{
			"byteLength":34944,
			"uri":"Chain.bin"
		}
	]
}
